<svg width="488" height="31" viewBox="0 0 488 31" fill="none" xmlns="http://www.w3.org/2000/svg">
<path d="M19.2186 0.664016C24.4814 0.664016 29.0159 2.13027 32.822 5.06277L27.3947 9.31428C25.0923 7.53515 22.3825 6.64558 19.2656 6.64558C16.086 6.64558 13.3763 7.53515 11.1365 9.31428C8.88097 11.0811 7.75323 13.21 7.75323 15.7008C7.75323 18.1915 8.88097 20.3204 11.1365 22.0872C13.3606 23.8541 16.0703 24.7375 19.2656 24.7375C21.6151 24.7375 23.7531 24.2222 25.6796 23.1915C27.4496 22.2467 28.7731 21.032 29.6502 19.5474H18.8427V13.8603H38.2962C38.7975 18.9277 36.957 23.0872 32.775 26.3387C29.0002 29.2712 24.4736 30.7375 19.1951 30.7375C13.8697 30.7375 9.35086 29.2712 5.63871 26.3387C1.87957 23.4185 0 19.8725 0 15.7008C0 11.5658 1.87957 8.01367 5.63871 5.04436C9.36652 2.08732 13.8853 0.608802 19.1951 0.608802L19.2186 0.664016Z" fill="#272525"/>
<path d="M52.2652 0.848065H59.8775V30.5166H52.2652V0.848065Z" fill="#272525"/>
<path d="M97.9989 0.774445V6.7192H82.7744V12.7008H94.1928V18.6455H82.7744V30.5534H75.1621V0.774445H97.9989Z" fill="#272525"/>
<path d="M136.731 0.848065V6.75601H127.427V30.5166H119.792V6.75601H110.464V0.848065H136.731Z" fill="#272525"/>
<path d="M161.155 24.6823C162.252 24.6823 163.254 24.3817 164.163 23.7805C165.102 23.167 165.572 22.4615 165.572 21.6639C165.572 20.5105 164.695 19.6271 162.941 19.0136C162.361 18.805 161.57 18.5903 160.568 18.3694L159.957 18.2406L159.393 18.1118C158.955 18.0259 158.594 17.9461 158.312 17.8725C155.838 17.2099 153.817 16.1854 152.251 14.7989C150.497 13.2652 149.619 11.5413 149.619 9.62716C149.619 7.12411 150.755 4.98915 153.026 3.22229C155.282 1.46769 158.007 0.590397 161.202 0.590397C164.1 0.590397 166.63 1.33886 168.791 2.83578C170.953 4.30817 172.229 6.15479 172.621 8.37563L165.055 9.62716C165.055 8.80508 164.679 8.09956 163.928 7.51061C163.176 6.92165 162.283 6.62718 161.249 6.62718C160.184 6.62718 159.276 6.92165 158.524 7.51061C157.756 8.11183 157.373 8.82348 157.373 9.64557C157.373 10.7989 158.203 11.7192 159.863 12.4063C160.474 12.664 161.234 12.9032 162.142 13.1241C162.44 13.1977 162.816 13.2897 163.27 13.4001L163.81 13.5106L164.327 13.6394C166.896 14.2161 168.995 15.1793 170.624 16.529C172.425 18.0136 173.325 19.7375 173.325 21.7007C173.325 24.167 172.104 26.2958 169.66 28.0872C167.264 29.8541 164.452 30.7375 161.226 30.7375C158.281 30.7375 155.65 29.9952 153.332 28.5105C151.013 27.0136 149.635 25.1608 149.197 22.9522L156.762 21.7007C156.762 22.4983 157.232 23.2038 158.171 23.8173C159.08 24.4062 160.09 24.7007 161.202 24.7007L161.155 24.6823Z" fill="#272525"/>
<path d="M228.118 8.44925C227.961 7.92165 227.624 7.47993 227.108 7.12411C226.544 6.75601 225.894 6.57196 225.157 6.57196C223.481 6.57196 222.503 7.16092 222.221 8.33882C222.142 8.65784 222.409 9.27747 223.019 10.1977C223.912 11.5597 224.852 12.756 225.839 13.7867C226.403 14.3879 227.17 15.0873 228.141 15.8848L229.433 16.9339C229.982 17.3879 230.444 17.7682 230.82 18.075C231.697 18.8234 232.386 19.3694 232.887 19.713C233.028 19.1854 233.122 18.5535 233.169 17.8173C233.185 17.5842 233.2 17.2468 233.216 16.805L233.24 16.2713L233.263 15.7008L240.382 15.6271C240.272 19.1118 239.748 21.67 238.808 23.3019L239.066 23.4308L239.348 23.578C239.583 23.6884 239.787 23.7866 239.959 23.8725C240.46 24.1056 240.915 24.3019 241.322 24.4614C242.465 24.9032 243.475 25.1117 244.353 25.0872L244.329 30.6087C242.7 30.6087 241.063 30.351 239.419 29.8356C238.792 29.6271 238.126 29.3755 237.422 29.0811C237.14 28.9584 236.834 28.8234 236.505 28.6761C236.302 28.578 236.02 28.443 235.66 28.2712C235.221 28.0749 234.837 27.8602 234.508 27.6271C233.099 28.8909 231.141 29.7743 228.635 30.2774C226.849 30.6332 225.236 30.8111 223.795 30.8111C220.271 30.8111 217.287 29.8786 214.843 28.0136C212.416 26.1731 211.202 23.9277 211.202 21.2774C211.249 19.5596 211.805 18.167 212.87 17.0995C213.935 16.032 215.055 15.0566 216.229 14.1732C216.339 14.0873 216.551 13.9523 216.864 13.7682C216.284 13.1425 215.752 12.3143 215.266 11.2836C214.734 10.167 214.452 9.17318 214.42 8.30202C214.42 6.42472 215.384 4.73148 217.31 3.22229C218.156 2.55971 219.276 1.96462 220.67 1.43702C222.283 0.835795 223.779 0.535183 225.157 0.535183C227.758 0.535183 230.06 1.20389 232.065 2.54131C233.944 3.79284 235.15 5.34497 235.683 7.19773L228.118 8.44925ZM223.818 24.9768C224.586 24.9768 225.502 24.8418 226.567 24.5719C227.695 24.2774 228.392 23.9706 228.658 23.6516V23.67C228.22 23.3756 227.17 22.6394 225.51 21.4615C223.834 20.2835 222.471 19.0136 221.422 17.6517C220.733 18.0443 220.051 18.5044 219.378 19.032C218.704 19.5596 218.391 20.3388 218.438 21.3694C218.438 21.8725 218.618 22.4001 218.978 22.9522C219.292 23.4185 219.668 23.8111 220.106 24.1302C220.842 24.6946 222.08 24.9768 223.818 24.9768Z" fill="#272525"/>
<path d="M302.199 20.0811L320.736 0.148682V30.5166H313.124V18.2222L302.199 30.0381L291.251 18.2222V30.5166H283.638V0.148682L302.199 20.0811Z" fill="#272525"/>
<path d="M358.881 0.774445V6.7192H343.657V12.7008H355.075V18.6455H343.657V24.6271H358.881V30.5534H336.045V0.774445H358.881Z" fill="#272525"/>
<path d="M372.756 0.848065H385.114C389.124 0.848065 392.429 1.85419 395.029 3.86645C396.298 4.86031 397.199 5.79896 397.731 6.68239C398.373 7.76214 398.694 9.06888 398.694 10.6026V11.3756C398.694 13.3756 397.896 15.259 396.298 17.0259C395.155 18.2774 393.643 19.1915 391.763 19.7682L400.574 30.5166H391.27L380.392 17.394V30.5166H372.78L372.756 0.848065ZM385.843 14.9646C387.221 14.9646 388.404 14.5535 389.391 13.7314C390.362 12.9094 390.847 11.9278 390.847 10.7867C390.847 9.70692 390.346 8.756 389.344 7.93392C388.31 7.14865 386.743 6.75601 384.645 6.75601H380.369V14.9462H383.305V14.9646H385.843Z" fill="#272525"/>
<path d="M445.861 26.3387C442.102 29.259 437.56 30.7191 432.234 30.7191C426.94 30.7068 422.421 29.2467 418.678 26.3387C414.919 23.394 413.039 19.848 413.039 15.7008C413.039 11.5658 414.919 8.01367 418.678 5.04436C422.453 2.08732 426.972 0.608802 432.234 0.608802L432.211 0.682421C437.411 0.682421 441.953 2.14867 445.838 5.08117L440.411 9.33268C438.124 7.56582 435.406 6.68239 432.258 6.68239C429.063 6.68239 426.353 7.56582 424.129 9.33268C421.873 11.1241 420.746 13.2529 420.746 15.7192C420.746 18.2099 421.873 20.3388 424.129 22.1056C426.369 23.8602 429.078 24.7375 432.258 24.7375C435.453 24.7375 438.179 23.8541 440.434 22.0872L445.861 26.3387Z" fill="#272525"/>
<path d="M467.349 0.848065V12.7192H480.012V0.848065H487.601V30.5166H480.012V18.6271H467.349V30.5166H459.76V0.848065H467.349Z" fill="#272525"/>
</svg>
