<svg width="25" height="25" viewBox="0 0 25 25" fill="none" xmlns="http://www.w3.org/2000/svg">
<path fill-rule="evenodd" clip-rule="evenodd" d="M18.3581 14.9326C20.8018 11.7941 20.5811 7.25347 17.6959 4.36829C14.5717 1.2441 9.5064 1.2441 6.38221 4.36829C3.25801 7.49249 3.25801 12.5578 6.38221 15.682C9.26739 18.5672 13.8081 18.7879 16.9465 16.3442C16.9601 16.3595 16.9742 16.3745 16.9888 16.3891L21.2315 20.6317C21.622 21.0223 22.2551 21.0223 22.6457 20.6317C23.0362 20.2412 23.0362 19.6081 22.6457 19.2175L18.403 14.9749C18.3884 14.9603 18.3734 14.9462 18.3581 14.9326ZM16.2817 5.78251C18.6248 8.12565 18.6248 11.9246 16.2817 14.2678C13.9386 16.6109 10.1396 16.6109 7.79642 14.2678C5.45328 11.9246 5.45328 8.12565 7.79642 5.78251C10.1396 3.43936 13.9386 3.43936 16.2817 5.78251Z" fill="#8E8E8E"/>
</svg>
