<svg width="41" height="33" viewBox="0 0 41 33" fill="none" xmlns="http://www.w3.org/2000/svg">
<path fill-rule="evenodd" clip-rule="evenodd" d="M26.1861 17.4267C29.5354 15.3624 30.8465 11.8622 29.4523 8.70749C28.058 5.55282 24.2646 3.43701 20.003 3.43701C15.7413 3.43701 11.9479 5.55282 10.5537 8.70749C9.15936 11.8622 10.4706 15.3624 13.8198 17.4267C8.11522 19.2171 4.13123 23.3214 3.45356 28.1061C3.35231 28.8272 4.0164 29.476 4.93684 29.5553C5.85728 29.6346 6.68552 29.1144 6.78677 28.3933C7.54446 23.1094 13.2487 19.1148 20.0363 19.1148C26.8239 19.1148 32.5281 23.1094 33.2858 28.3933C33.3797 29.0578 34.0991 29.5593 34.9524 29.5553H35.1357C36.0451 29.4733 36.6999 28.8322 36.6023 28.1192C35.9214 23.3204 31.915 19.2078 26.1861 17.4267V17.4267ZM20 16.4995C16.3183 16.4995 13.3336 14.1615 13.3336 11.2773C13.3336 8.39316 16.3183 6.05509 20 6.05509C23.6818 6.05509 26.6665 8.39316 26.6665 11.2773C26.6665 12.6623 25.9641 13.9906 24.7139 14.97C23.4637 15.9493 21.7681 16.4995 20 16.4995Z" fill="#272525"/>
</svg>
